# xmcd
#
# Track frame offsets: 
#        150
#        16257
#        37887
#        64477
#        86892
#        110535
#        133997
#
# Disc length: 2259 seconds
#
# Revision: 0
# Processed by: cddbd v1.5.2PL0 Copyright (c) Steve Scherf et al.
# Submitted via: ExactAudioCopy v0.99pb5
#
DISCID=5f08d107
DTITLE=Blues Dawg Band - I've Got The Blues
DYEAR=2000
DGENRE=Blues
TTITLE0=I've Got The Blues
TTITLE1=Blues Dog
TTITLE2=The Sky Is Crying
TTITLE3=Azalea
TTITLE4=Why Do You Lie To Me
TTITLE5=I Can't Get You Off My Mind
TTITLE6=Let Love Shed The Rain
EXTD=
EXTT0=
EXTT1=
EXTT2=
EXTT3=
EXTT4=
EXTT5=
EXTT6=
PLAYORDER=
